<svg xmlns="http://www.w3.org/2000/svg" viewBox="0 0 1122 1402">
  <!-- Aligned display silhouette; generated facial pixels are unmodified. -->
  <path fill="white" d="M0 1402V1043L33 942Q45 890 76 886L322 770Q349 745 378 710Q370 677 389 651Q356 610 349 548Q336 546 334 521Q310 489 307 453Q301 415 320 407Q332 402 341 413L329 382 325 354 320 325 315 300 319 273 319 251 326 223 336 205 345 181 362 166 382 148 405 138 428 125 452 114 478 110 502 100 527 103 549 97 574 100 598 102 623 106 644 114 663 124 678 141 688 163 700 181 717 200 727 223 737 245 742 270 748 293 744 318 738 342 731 365 721 399Q744 389 755 405Q773 426 753 475Q745 496 731 514Q733 534 717 541Q709 602 685 640Q700 651 703 678L739 720 783 752Q916 805 1046 885Q1088 880 1104 950L1122 1022V1402Z"/>
</svg>
