<svg xmlns="http://www.w3.org/2000/svg" viewBox="0 0 960 640" role="img" aria-label="API architecture system preview">
  <defs>
    <linearGradient id="apiBg" x1="0" x2="1" y1="0" y2="1">
      <stop stop-color="#040511"/>
      <stop offset=".56" stop-color="#151035"/>
      <stop offset="1" stop-color="#061525"/>
    </linearGradient>
    <linearGradient id="apiAccent" x1="0" x2="1">
      <stop stop-color="#60a5fa"/>
      <stop offset=".5" stop-color="#8b5cf6"/>
      <stop offset="1" stop-color="#d8b4fe"/>
    </linearGradient>
    <filter id="apiGlow" x="-30%" y="-30%" width="160%" height="160%">
      <feGaussianBlur stdDeviation="10" result="blur"/>
      <feMerge>
        <feMergeNode in="blur"/>
        <feMergeNode in="SourceGraphic"/>
      </feMerge>
    </filter>
  </defs>
  <rect width="960" height="640" rx="48" fill="url(#apiBg)"/>
  <circle cx="214" cy="176" r="170" fill="#7c3aed" opacity=".14"/>
  <circle cx="746" cy="472" r="180" fill="#2563eb" opacity=".12"/>
  <g opacity=".13" stroke="#a78bfa">
    <path d="M96 160h768M96 312h768M96 464h768"/>
    <path d="M192 70v500M384 70v500M576 70v500M768 70v500"/>
  </g>
  <g stroke="url(#apiAccent)" stroke-width="8" stroke-linecap="round" opacity=".82">
    <path d="M480 320 262 196"/>
    <path d="M480 320 694 190"/>
    <path d="M480 320 262 452"/>
    <path d="M480 320 698 456"/>
  </g>
  <circle cx="480" cy="320" r="76" fill="#090e20" stroke="#c084fc" stroke-opacity=".48" stroke-width="2"/>
  <circle cx="480" cy="320" r="44" fill="url(#apiAccent)" filter="url(#apiGlow)"/>
  <g fill="#0b1020" stroke="#a855f7" stroke-opacity=".42">
    <rect x="146" y="128" width="232" height="136" rx="28"/>
    <rect x="582" y="122" width="232" height="136" rx="28"/>
    <rect x="146" y="384" width="232" height="136" rx="28"/>
    <rect x="582" y="388" width="232" height="136" rx="28"/>
  </g>
  <g fill="#e9d5ff" opacity=".78">
    <rect x="188" y="174" width="112" height="14" rx="7"/>
    <rect x="188" y="210" width="76" height="10" rx="5" opacity=".45"/>
    <rect x="624" y="168" width="118" height="14" rx="7"/>
    <rect x="624" y="204" width="86" height="10" rx="5" opacity=".45"/>
    <rect x="188" y="430" width="122" height="14" rx="7"/>
    <rect x="188" y="466" width="82" height="10" rx="5" opacity=".45"/>
    <rect x="624" y="434" width="104" height="14" rx="7"/>
    <rect x="624" y="470" width="74" height="10" rx="5" opacity=".45"/>
  </g>
  <g fill="#60a5fa">
    <circle cx="262" cy="196" r="11"/>
    <circle cx="694" cy="190" r="11"/>
    <circle cx="262" cy="452" r="11"/>
    <circle cx="698" cy="456" r="11"/>
  </g>
</svg>
